<?xml version="1.0" encoding="UTF-8"?>
<svg enable-background="new 0 0 512 512" fill="#fff" version="1.1" viewBox="0 0 512 512" xml:space="preserve" xmlns="http://www.w3.org/2000/svg">
		<polygon points="512 238.54 418.5 238.54 454.52 202.52 429.84 177.83 369.13 238.54 286.23 238.54 327.68 166.76 410.61 144.54 401.58 110.81 352.36 124 399.12 43.025 368.88 25.571 322.13 106.55 308.94 57.334 275.22 66.37 297.45 149.3 256 221.09 214.55 149.3 236.77 66.368 203.06 57.334 189.87 106.55 143.12 25.571 112.88 43.025 159.64 124 110.42 110.82 101.39 144.54 184.32 166.76 225.77 238.54 142.87 238.54 82.16 177.83 57.477 202.52 93.504 238.54 0 238.54 0 273.46 93.504 273.46 57.477 309.48 82.16 334.17 142.87 273.46 225.77 273.46 184.32 345.24 101.38 367.46 110.42 401.19 159.64 388 112.88 468.98 143.12 486.43 189.87 405.45 203.06 454.67 236.77 445.63 214.55 362.7 256 290.91 297.45 362.7 275.22 445.63 308.94 454.67 322.13 405.45 368.88 486.43 399.12 468.98 352.36 388 401.58 401.19 410.61 367.46 327.68 345.24 286.23 273.46 369.13 273.46 429.84 334.17 454.52 309.48 418.5 273.46 512 273.46"/>
</svg>